<?xml version="1.0" encoding="UTF-8" standalone="no"?>
<svg
   xmlns:dc="http://purl.org/dc/elements/1.1/"
   xmlns:cc="http://creativecommons.org/ns#"
   xmlns:rdf="http://www.w3.org/1999/02/22-rdf-syntax-ns#"
   xmlns:svg="http://www.w3.org/2000/svg"
   xmlns="http://www.w3.org/2000/svg"
   xmlns:sodipodi="http://sodipodi.sourceforge.net/DTD/sodipodi-0.dtd"
   xmlns:inkscape="http://www.inkscape.org/namespaces/inkscape"
   width="256"
   height="128"
   viewBox="0 0 67.733335 33.866666"
   version="1.1"
   id="svg8"
   sodipodi:docname="logo.svg"
   inkscape:version="1.0.2 (e86c870879, 2021-01-15)"
   inkscape:export-filename="C:\Users\Mónica Emmanuelle\Documents\Code\GAN Builder\resources\logo.png"
   inkscape:export-xdpi="96.000008"
   inkscape:export-ydpi="96.000008">
  <defs
     id="defs2" />
  <sodipodi:namedview
     id="base"
     pagecolor="#737373"
     bordercolor="#b3b3b3"
     borderopacity="1"
     inkscape:pageopacity="0"
     inkscape:pageshadow="2"
     inkscape:zoom="3.959798"
     inkscape:cx="139.66411"
     inkscape:cy="72.467242"
     inkscape:document-units="mm"
     inkscape:current-layer="layer1"
     inkscape:document-rotation="0"
     showgrid="false"
     inkscape:pagecheckerboard="true"
     inkscape:window-width="1920"
     inkscape:window-height="1017"
     inkscape:window-x="-8"
     inkscape:window-y="-8"
     inkscape:window-maximized="1"
     units="px" />
  <metadata
     id="metadata5">
    <rdf:RDF>
      <cc:Work
         rdf:about="">
        <dc:format>image/svg+xml</dc:format>
        <dc:type
           rdf:resource="http://purl.org/dc/dcmitype/StillImage" />
        <dc:title></dc:title>
      </cc:Work>
    </rdf:RDF>
  </metadata>
  <g
     inkscape:label="Layer 1"
     inkscape:groupmode="layer"
     id="layer1">
    <g
       id="g960"
       transform="translate(-1.5119048)">
      <path
         class="cls-1"
         d="m 27.885102,8.7397789 v 0 A 13.22474,13.22474 0 0 0 26.122811,6.9366079 8.0423375,8.0423375 0 0 0 21.356756,5.3408626 C 16.87382,5.3136016 13.240234,8.9214529 13.240234,13.405907 v 0.08932 c 0.01817,1.735042 -0.685839,3.404976 -1.977277,4.563184 a 6.8190303,6.8190303 0 0 0 -2.2755327,5.094592 c 0,2.139274 0.9825811,4.04993 2.5207997,5.305031 2.735788,1.960622 5.791029,1.553359 6.187695,1.553359 7.221753,0 13.074858,-5.854611 13.074858,-13.076366 A 13.02035,13.02035 0 0 0 27.885102,8.7397769 Z"
         id="path8"
         style="fill:#c8c2e9;stroke-width:0.0151399" />
      <path
         class="cls-2"
         d="m 18.197053,20.718495 0.582886,-0.682808 h 0.01211 c -0.660102,1.232388 0.495075,2.881129 2.7373,3.262658 1.29598,0.171082 1.504912,0.925049 1.881896,1.339882 1.657824,-5.265674 -2.96743,-6.189204 -3.692631,-5.69716 v -0.0062 l 0.422406,-0.495105 a 0.6014446,0.6014446 0 0 0 -0.915967,-0.779709 l -0.155941,0.183193 -5.745608,-5.60783 a 8.2482409,8.2482409 0 0 0 -0.08327,1.168801 v 0.08932 a 6.1513586,6.1513586 0 0 1 -0.591971,2.707026 l 4.790277,3.554856 -0.155941,0.183193 a 0.60105573,0.60105573 0 1 0 0.914453,0.77971 z"
         id="path10"
         style="fill:#b9b1e0;stroke-width:0.0151399" />
      <path
         class="cls-1"
         d="m 13.184216,14.397574 a 6.1422745,6.1422745 0 0 0 0.611655,-2.747902 v -0.09083 a 8.1937369,8.1937369 0 0 1 0.121118,-1.400448 8.0423375,8.0423375 0 0 0 -0.676755,3.246005 v 0.08932 a 6.1937507,6.1937507 0 0 1 -0.05602,0.903856 z"
         id="path12"
         style="fill:#c8c2e9;stroke-width:0.0151399" />
      <path
         class="cls-2"
         d="m 18.251557,28.164319 c -0.396667,0 -3.450394,0.407271 -6.186183,-1.553359 -1.539732,-1.255101 -2.5223136,-3.164246 -2.5223136,-5.305031 a 6.8553663,6.8553663 0 0 1 0.078726,-1.034061 6.8038904,6.8038904 0 0 0 -0.6343624,2.879618 c 0,2.139274 0.9825811,4.04993 2.5208,5.305039 2.735788,1.960622 5.791029,1.553359 6.187695,1.553359 6.243713,0 11.463965,-4.37696 12.764487,-10.228549 -1.886438,4.903828 -6.640379,8.382984 -12.208849,8.382984 z"
         id="path14"
         style="fill:#b9b1e0;stroke-width:0.0151399" />
      <circle
         class="cls-3"
         cx="21.795815"
         cy="10.465732"
         r="2.6070981"
         id="circle16"
         style="fill:#84b320;stroke-width:0.0151399" />
      <circle
         class="cls-4"
         cx="26.137953"
         cy="16.529272"
         r="2.6070981"
         id="circle18"
         style="fill:#de3226;stroke-width:0.0151399" />
      <circle
         class="cls-5"
         cx="22.35751"
         cy="24.112883"
         r="2.6070981"
         id="circle20"
         style="fill:#67baeb;stroke-width:0.0151399" />
      <circle
         class="cls-6"
         cx="14.545299"
         cy="24.112883"
         r="2.6070981"
         id="circle22"
         style="fill:#f4c23f;stroke-width:0.0151399" />
      <path
         class="cls-7"
         d="m 22.683014,12.535364 a 2.6070981,2.6070981 0 0 1 -1.765315,-4.5253291 2.6070981,2.6070981 0 1 0 2.643433,4.3739301 2.5904442,2.5904442 0 0 1 -0.878118,0.151399 z"
         id="path24"
         style="fill:#4b7d27;stroke-width:0.0151399" />
      <path
         class="cls-8"
         d="m 27.02515,18.598911 a 2.6070981,2.6070981 0 0 1 -1.765316,-4.525329 2.6070981,2.6070981 0 1 0 2.643436,4.373922 2.5904442,2.5904442 0 0 1 -0.87812,0.151407 z"
         id="path26"
         style="fill:#b11a31;stroke-width:0.0151399" />
      <path
         class="cls-9"
         d="m 23.246222,26.182504 a 2.6070981,2.6070981 0 0 1 -1.765317,-4.525329 2.6070981,2.6070981 0 1 0 2.641919,4.37393 2.5889302,2.5889302 0 0 1 -0.876602,0.151399 z"
         id="path28"
         style="fill:#46a1f8;stroke-width:0.0151399" />
      <path
         class="cls-10"
         d="m 15.432497,26.182504 a 2.6070981,2.6070981 0 0 1 -1.765317,-4.525329 2.6070981,2.6070981 0 1 0 2.643434,4.37393 2.6040702,2.6040702 0 0 1 -0.878117,0.151399 z"
         id="path30"
         style="fill:#f4a93f;stroke-width:0.0151399" />
      <path
         class="cls-11"
         d="m 20.116797,18.503521 -0.828155,0.970474 c -0.702494,1.236937 0.454198,2.914442 2.717618,3.300512 1.29598,0.171074 1.504911,0.925048 1.881894,1.338363 1.742608,-5.53213 -3.453419,-6.272475 -3.771357,-5.609349 z"
         id="path32"
         style="fill:#ffffff;stroke-width:0.0151399" />
      <path
         class="cls-12"
         d="m 22.27878,21.738934 c -1.719897,-0.292206 -2.800888,-1.332319 -2.91141,-2.357291 l -0.07873,0.09235 c -0.702494,1.236937 0.454198,2.914442 2.717618,3.300512 1.29598,0.171074 1.504911,0.925048 1.881894,1.338363 a 8.5343856,8.5343856 0 0 0 0.260409,-1.049195 c -0.369412,-0.41635 -0.587429,-1.155176 -1.869781,-1.324739 z"
         id="path34"
         style="fill:#bed5eb;stroke-width:0.0151399" />
      <path
         class="cls-13"
         d="m 4.7013062,6.3158689 v 0 C 5.5779086,5.2863563 7.1448924,5.2136865 8.1123361,6.1584179 L 19.546021,17.318068 17.915449,19.231754 5.0873747,9.7087329 C 4.0003273,8.9017709 3.8231896,7.3453899 4.7013062,6.3158689 Z"
         id="path36"
         style="fill:#4d4c78;stroke-width:0.0151399" />
      <path
         class="cls-14"
         d="M 6.1941045,9.1349299 C 5.1085704,8.3294859 4.9314328,6.7715859 5.8080352,5.7420655 v 0 A 2.3482052,2.3482052 0 0 1 5.9987986,5.5452494 2.3133831,2.3133831 0 0 0 4.7013062,6.3158689 v 0 c -0.8781166,1.029521 -0.7009789,2.585902 0.3860685,3.392864 l 12.8280743,9.5230211 0.72823,-0.855401 z"
         id="path38"
         style="fill:#323150;stroke-width:0.0151399" />
      <rect
         class="cls-13"
         height="1.2026256"
         rx="0.60108578"
         ry="0.60108578"
         transform="rotate(130.53915)"
         width="4.1985154"
         x="-0.41394022"
         y="-27.287025"
         id="rect40"
         style="fill:#4d4c78;stroke-width:0.0151408" />
      <path
         class="cls-14"
         d="m 20.575537,17.090969 -1.719898,2.018158 a 0.60256974,0.60256974 0 0 1 -0.847836,0.06815 v 0 a 0.19530526,0.19530526 0 0 1 -0.02574,-0.02422 l -0.222557,0.261923 a 0.60256974,0.60256974 0 0 0 0.06813,0.84783 v 0 a 0.59954171,0.59954171 0 0 0 0.846322,-0.06815 l 1.943968,-2.280073 a 0.60105573,0.60105573 0 0 0 -0.0424,-0.823618 z"
         id="path42"
         style="fill:#323150;stroke-width:0.0151399" />
      <rect
         class="cls-15"
         height="7.0529418"
         rx="0.87054664"
         ry="0.87054664"
         transform="rotate(-46.000001)"
         width="1.7426074"
         x="-0.60064375"
         y="11.247195"
         id="rect44"
         style="fill:#64639c;stroke-width:0.0151399" />
      <rect
         class="cls-15"
         height="1.6802307"
         rx="0.21952918"
         ry="0.21952918"
         transform="rotate(40.4)"
         width="0.43905836"
         x="26.134483"
         y="0.28686082"
         id="rect46"
         style="fill:#64639c;stroke-width:0.0151399" />
      <circle
         class="cls-16"
         cx="15.550589"
         cy="23.489107"
         r="1.2641853"
         id="circle48"
         style="fill:#fad564;stroke-width:0.0151399" />
      <circle
         class="cls-17"
         cx="22.8435"
         cy="9.3014698"
         r="1.047684"
         id="circle50"
         style="fill:#bddd2a;stroke-width:0.0151399" />
      <circle
         class="cls-18"
         cx="27.447556"
         cy="15.527014"
         r="0.9507885"
         id="circle52"
         style="fill:#f44533;stroke-width:0.0151399" />
      <path
         class="cls-5"
         d="m 22.00626,22.774507 c 1.29598,0.171074 1.504911,0.925048 1.881894,1.338363 0.330053,-1.047676 0.410294,-1.924279 0.323997,-2.651001 -0.756998,0.02874 -1.624517,-1.01892 -1.918231,0.01971 -0.20893,0.741864 -1.229365,0.749434 -2.016641,0.635881 0.460254,0.305829 1.044656,0.540498 1.728981,0.657074 z"
         id="path54"
         style="fill:#67baeb;stroke-width:0.0151399" />
      <path
         class="cls-9"
         d="m 22.27878,21.738934 -0.09538,-0.01667 c -0.345192,0.501126 -1.215736,0.495074 -1.906119,0.395151 0.460254,0.305821 1.044656,0.540498 1.728981,0.657074 1.29598,0.171074 1.504911,0.925049 1.881894,1.338364 a 8.5343856,8.5343856 0 0 0 0.260409,-1.049196 c -0.369416,-0.41635 -0.587433,-1.155176 -1.869785,-1.324739 z"
         id="path56"
         style="fill:#46a1f8;stroke-width:0.0151399" />
      <ellipse
         class="cls-5"
         cx="23.016096"
         cy="20.483828"
         rx="0.17108135"
         ry="0.26646301"
         id="ellipse58"
         style="fill:#67baeb;stroke-width:0.0151399" />
      <ellipse
         class="cls-5"
         cx="25.494503"
         cy="22.432344"
         rx="0.22255714"
         ry="0.48447815"
         id="ellipse60"
         style="fill:#67baeb;stroke-width:0.0151399" />
      <path
         class="cls-19"
         d="m 27.885102,8.7397789 v 0 a 13.127844,13.127844 0 0 0 -1.762291,-1.80166 C 25.938105,6.7988319 25.74734,6.6701439 25.55052,6.5475169 a 4.9795271,4.9795271 0 0 0 -0.277061,1.645711 c 0,2.7478941 2.21346,4.9764901 4.955305,5.0022321 A 13.038518,13.038518 0 0 0 27.885102,8.7397789 Z"
         id="path62"
         style="fill:#dfdafd;stroke-width:0.0151399" />
    </g>
    <text
       xml:space="preserve"
       style="font-style:normal;font-variant:normal;font-weight:bold;font-stretch:normal;font-size:12.1047px;line-height:0;font-family:sans-serif;-inkscape-font-specification:'sans-serif, Bold';font-variant-ligatures:normal;font-variant-caps:normal;font-variant-numeric:normal;font-variant-east-asian:normal;fill:#ffffff;stroke-width:0.453928"
       x="32.055714"
       y="16.0371"
       id="text922"><tspan
         sodipodi:role="line"
         id="tspan920"
         x="32.055714"
         y="16.0371"
         style="font-style:normal;font-variant:normal;font-weight:bold;font-stretch:normal;font-size:12.1047px;font-family:sans-serif;-inkscape-font-specification:'sans-serif, Bold';font-variant-ligatures:normal;font-variant-caps:normal;font-variant-numeric:normal;font-variant-east-asian:normal;fill:#ffffff;stroke-width:0.453928">GAN</tspan><tspan
         sodipodi:role="line"
         x="32.055714"
         y="16.0371"
         style="font-style:normal;font-variant:normal;font-weight:bold;font-stretch:normal;font-size:12.1047px;font-family:sans-serif;-inkscape-font-specification:'sans-serif, Bold';font-variant-ligatures:normal;font-variant-caps:normal;font-variant-numeric:normal;font-variant-east-asian:normal;fill:#ffffff;stroke-width:0.453928"
         id="tspan924" /><tspan
         sodipodi:role="line"
         x="32.055714"
         y="16.0371"
         style="font-style:normal;font-variant:normal;font-weight:bold;font-stretch:normal;font-size:12.1047px;font-family:sans-serif;-inkscape-font-specification:'sans-serif, Bold';font-variant-ligatures:normal;font-variant-caps:normal;font-variant-numeric:normal;font-variant-east-asian:normal;fill:#ffffff;stroke-width:0.453928"
         id="tspan926" /></text>
    <text
       xml:space="preserve"
       style="font-style:normal;font-variant:normal;font-weight:normal;font-stretch:normal;font-size:9.47854px;line-height:0;font-family:Carlito;-inkscape-font-specification:'Carlito, Normal';font-variant-ligatures:normal;font-variant-caps:normal;font-variant-numeric:normal;font-variant-east-asian:normal;fill:#ffffff;stroke-width:0.355444"
       x="32.549339"
       y="28.448002"
       id="text930"><tspan
         sodipodi:role="line"
         id="tspan928"
         x="32.549339"
         y="28.448002"
         style="font-style:normal;font-variant:normal;font-weight:normal;font-stretch:normal;font-size:9.47854px;font-family:Carlito;-inkscape-font-specification:'Carlito, Normal';font-variant-ligatures:normal;font-variant-caps:normal;font-variant-numeric:normal;font-variant-east-asian:normal;fill:#ffffff;stroke-width:0.355444">BUILDER</tspan></text>
  </g>
</svg>
